<svg viewBox="0 0 20 20" xmlns="http://www.w3.org/2000/svg" fill-rule="evenodd" clip-rule="evenodd" stroke-linejoin="round" stroke-miterlimit="1.414"><path style=" stroke:none;fill-rule:nonzero;fill:rgb(0%,0%,0%);fill-opacity:1;" d="M 16 2.667969 L 4 2.667969 C 3.261719 2.667969 2.667969 3.261719 2.667969 4 L 2.667969 16 C 2.667969 16.738281 3.261719 17.332031 4 17.332031 L 16 17.332031 C 16.738281 17.332031 17.332031 16.738281 17.332031 16 L 17.332031 4 C 17.332031 3.261719 16.738281 2.667969 16 2.667969 Z M 15.027344 14 L 11.074219 14 L 11.074219 13.777344 L 12 12.964844 L 12 8.3125 L 9.726562 14 L 9.371094 14 L 6.832031 8.269531 L 6.832031 12.328125 L 7.992188 13.777344 L 7.992188 14 L 4.972656 14 L 4.972656 13.777344 L 6.171875 12.328125 L 6.171875 7.5 L 5.105469 6.164062 C 5.105469 6.164062 5.105469 5.972656 5.105469 6.003906 L 8.023438 6.003906 L 10.289062 10.90625 L 12.242188 6.003906 L 15.011719 6.003906 L 15.011719 6.164062 L 14 7.015625 L 14 12.964844 L 15.027344 13.777344 Z M 15.027344 14 "/></svg>